<svg width="20" height="26" viewBox="0 0 20 26" fill="none" xmlns="http://www.w3.org/2000/svg">
<path d="M4.40358 21.6012C2.53 17.0146 4.9766 12.6733 6.94171 9.18478C7.62227 7.97409 8.2688 6.83076 8.61112 5.88235C8.88334 5.12478 9.01776 4.42844 9.00687 3.75659C7.9993 5.76363 6.33364 7.29442 4.63837 8.80889C2.80869 10.4434 0.95485 12.2501 0.270209 14.6058C-0.248035 16.3904 -0.0129027 18.3818 0.907551 19.9956C1.79023 21.5444 3.33238 22.42 5.04568 22.8983C4.80078 22.4819 4.58619 22.0484 4.40358 21.6012Z" fill="#FFC24D"/>
<path d="M9.7361 0C11.056 2.1261 11.2531 4.176 10.4024 6.52934C8.99837 10.4131 4.03915 15.6763 6.16623 20.8824C7.17754 23.3578 8.92555 24.5332 10.7967 24.8842C8.22968 22.8496 7.87375 19.9857 8.89119 17.7684C10.1131 15.1093 13.2086 13.2162 14.6524 10.3931C16.5985 13.3274 19.0733 20.5303 15.3619 24.3246C16.3647 23.9048 17.2205 23.3225 17.8051 22.6959C23.1771 16.9408 17.9974 4.54509 9.7361 0Z" fill="#43AAFF"/>
<path d="M14.5837 14.7167C14.8488 16.3097 15.7338 23.3833 10.4963 26C13.3614 23.0003 14.2397 17.983 14.5837 14.7167Z" fill="#43AAFF"/>
</svg>
